DataType=double
version=3
OpenSimVersion=4.5
endheader
time	ground_force_1_vx	ground_force_1_vy	ground_force_1_vz	ground_force_1_px	ground_force_1_py	ground_force_1_pz	ground_moment_1_mx	ground_moment_1_my	ground_moment_1_mz
1.5	0.04290677938588638	0.08974332971723697	-0.03603818245007773	0.7435565599815739	0.006637299061187014	0.4090857956867301	-0.002889221359104965	-0.003813311775982098	-0.01159427980187089
1.505	0.04000365598921274	0.1422065126378129	-0.03754666262713613	0.754155722002241	0.006637299061187014	0.4084454369064305	-0.00351386327053449	-0.003999934131202587	-0.01716336566125976
1.51	0.03641562254355613	0.1984694944188163	-0.03880195774404882	0.7652368078009616	0.006637299061187014	0.407767825241156	-0.004179940867305998	-0.004164137569077464	-0.02306422150989795
1.515	0.03204291302060103	0.2575331315853759	-0.03964111084117761	0.7767349694023286	0.006637299061187014	0.40705579660957	-0.004873214253068081	-0.004288837436133397	-0.02917334809058603
1.52	0.02678579333752795	0.3179905784425614	-0.03985568995245359	0.7885869457426595	0.006637299061187014	0.4063126679902769	-0.005574128895434516	-0.004352025760677114	-0.03532291940529775
1.525	0.02054785266651749	0.3779612028854444	-0.0391884655232495	0.800731663813074	0.006637299061187014	0.4055423246361162	-0.006256961390530336	-0.004326384416330931	-0.04129410121793775
1.53	0.01323965734310661	0.4350249875445229	-0.03733218629127677	0.8131105463309753	0.006637299061187014	0.4047492667298866	-0.00688894251174732	-0.004179111191553564	-0.04681048217910688
1.535	0.004783277120927298	0.4861590043664705	-0.03393028755354166	0.8256675952851705	0.006637299061187014	0.4039386179673162	-0.007429401080886855	-0.003871940840677157	-0.05153183712959941
1.54	-0.004881944970021479	0.527678347280812	-0.02857958024821627	0.8383493139850321	0.006637299061187014	0.4031160992940555	-0.007828978109789109	-0.003361368137744181	-0.0550485272663106
1.545	-0.01579209513309232	0.5551848167473281	-0.02083513622247679	0.8511045229365168	0.006637299061187014	0.4022879716722546	-0.008028967621364291	-0.002599098015654888	-0.05687693477351297
1.55	-0.02794965497998003	0.5635276466749133	-0.01021771877935151	0.8638841172411654	0.006637299061187014	0.4014609523221536	-0.007960848997880632	-0.001532761880964462	-0.05645642874909651
1.555	-0.04131260092721645	0.546781625200822	0.003775779728911743	0.876640805490962	0.006637299061187014	0.4006421093754526	-0.007546085664250413	-0.0001069510711127486	-0.05314846317469035
1.56	-0.05578159351729584	0.4982490587062216	0.02165833365553738	0.8893288624941681	0.006637299061187014	0.3998387402771261	-0.006696276179162908	0.001735371009163933	-0.04623851406751567
1.565	-0.07118530819543123	0.4104931210502514	0.04393457721827687	0.9019039207658319	0.006637299061187014	0.3990582395560054	-0.005313756011713799	0.004051008002398604	-0.03494166820627242
1.57	-0.0872640573470016	0.2754111680781648	0.07107772077247176	0.9143228186790138	0.006637299061187014	0.3983079617186062	-0.003292760833395914	0.006894146143760549	-0.01841277527399732
1.575	-0.1036519565466127	0.0843575438947255	0.1035009244241074	0.9265435166088503	0.006637299061187014	0.3975950849687904	-0.0005212741591860137	0.01031337140717759	0.004237835660624301
1.58	-0.1198580037636345	-0.1716737706213394	0.1415225146346479	0.9385250864076257	0.006637299061187014	0.3969264811849583	0.00311630740702773	0.01434801784791012	0.03392200037408566
1.585	-0.1352465758819639	-0.5017956625742386	0.1853245199679101	0.9502277742091775	0.006637299061187014	0.3963085970744809	0.007735550242047307	0.01902378530599563	0.07154359666506682
1.59	-0.1490180057509951	-0.9148921281648086	0.2349041354569401	0.9616131319480515	0.006637299061187014	0.3957473506677809	0.01344725582919581	0.0243475777835675	0.1179595032844738
1.595	-0.1601900862179124	-1.419188752448861	0.2900179093348427	0.9726442091525453	0.006637299061187014	0.3952480463307841	0.02035148434506651	0.03030153240200795	0.1739305052765192
1.6	-0.1675815551158624	-2.021718285877341	0.3501186902851572	0.9832857935739217	0.006637299061187014	0.3948153103091681	0.02853019199355744	0.03683623387328094	0.2400610768925961
1.605	-0.1697988456900528	-2.727671087775207	0.414285687433015	0.9935046870701145	0.006637299061187014	0.3944530475405655	0.0380383590331026	0.04386314192298524	0.3167271031863939
1.61	-0.1652276374505202	-3.539621809419714	0.4811483885857797	1.003270001871991	0.006637299061187014	0.394164419171265	0.04889350960572392	0.05124630012296738	0.4039908088555069
1.615	-0.1520310078621958	-4.456626130784912	0.5488055640387799	1.012553461898378	0.006637299061187014	0.393951838993381	0.06106356001281688	0.05879344511714046	0.501502462958954
1.62	-0.1281562588880325	-5.473184803214338	0.6147411616576122	1.021329694100361	0.006637299061187014	0.3938169859790162	0.07445298101022546	0.06624669614328388	0.6083888367563421
1.625	-0.0913527663301843	-6.578076846524993	0.6757395796106991	1.029576495826766	0.006637299061187014	0.3937608293203995	0.08888732415470502	0.07327307682041673	0.7231289257405724
1.63	-0.03920346397947583	-7.753069666259762	0.7278035891053705	1.037275065807429	0.006637299061187014	0.3937836619572303	0.1040962443756741	0.07945520493365538	0.8434181228191197
1.635	0.03082718534418305	-8.971521257887389	0.7660790711827445	1.04441018842536	0.006637299061187014	0.3938851385201969	0.1196952528020248	0.0842825816151348	0.9660228635903177
1.64	0.1213256816795756	-10.19689870357837	0.7847917256001509	1.050970363355369	0.006637299061187014	0.3940643139410093	0.1351665572785552	0.08714401862935672	1.086628771027725
1.645	0.2348392576167386	-11.38124797588057	0.7772019970131119	1.056947875241036	0.006637299061187014	0.3943196796340682	0.1498394944994001	0.08732186058617114	1.199686517174374
1.65	0.3737596934541274	-12.46366273970131	0.73558562807359	1.062338800721205	0.006637299061187014	0.3946491950688424	0.1628712283420888	0.08398878628951792	1.298261001276571
1.655	0.5401780144059201	-13.36881444149634	0.6512484665896068	1.067142952667953	0.006637299061187014	0.395050313625364	0.1732285842117172	0.07620810770579697	1.373891019295966
1.66	0.7357071238609281	-14.00562248194586	0.5145853909226155	1.071363763843595	0.006637299061187014	0.3955200027443265	0.179672108512527	0.06293862281764045	1.416468363830003
1.665	0.9612698277141083	-14.26616159042925	0.3151944295865441	1.075008114230859	0.006637299061187014	0.3960547594335166	0.1807436841130734	0.04304521535854411	1.414147232062374
1.67	1.216850325092329	-14.02492344913099	0.04205828002456613	1.078086107969683	0.006637299061187014	0.3966506230707498	0.1747592937610127	0.01531652419103291	1.353296907649344
1.675	1.501208119433524	-13.13857082028284	-0.3161935938716773	1.080610807106801	0.006637299061187014	0.3973031880693748	0.1598087989796784	-0.02150887954903635	1.218512881662446
1.68	1.811554491643482	-11.44634446131738	-0.7709283724382949	1.082597930219309	0.006637299061187014	0.3980076192944842	0.1337648852197719	-0.06870627759898734	0.9927038301397624
1.685	2.14319323447907	-8.771305370184564	-1.333044496575468	1.084065524425268	0.006637299061187014	0.3987586731180741	0.09430360591134113	-0.1275169647033955	0.6572740919592344
1.69	2.489129329510451	-4.922616565917735	-2.012383262587942	1.085033619377984	0.006637299061187014	0.3995507266938765	0.03893922688375095	-0.1990871863296148	0.1924233898909991
1.695	2.839651697560681	0.3009114092898812	-2.817003848053403	1.08552387160699	0.006637299061187014	0.4003778174603457	-0.03492368641553201	-0.2843923084793568	-0.4224126134818758
1.7	3.181899104032245	7.105770140666777	-3.75230966279544	1.085559207078886	0.006637299061187014	0.4012336941079196	-0.1299178016698068	-0.3841448048412015	-1.207955885428385
1.705	3.499421757279794	15.69694483163352	-4.820016298650053	1.085163469168665	0.006637299061187014	0.4021118793523873	-0.24861690868367	-0.4986848749849998	-2.18428781927268
1.71	3.771754736425133	26.26909008929874	-6.016954895200545	1.084361078418107	0.006637299061187014	0.4030057439228937	-0.3934128701000281	-0.6278528575009109	-3.369833407487646
1.715	3.97401600268251	38.99546208449124	-7.3337104988452	1.083176709568164	0.006637299061187014	0.4039085902803234	-0.5663624513719967	-0.7708431749755444	-4.780105201835376
1.72	4.076430721099932	54.01478658174818	-8.753119748409713	1.081634990433443	0.006637299061187014	0.4048137437988021	-0.7690012324307709	-0.9260418695474832	-6.426221641591869
1.725	4.043250123593372	71.4179078432237	-10.24876889304329	1.079760226274761	0.006637299061187014	0.4057146485239378	-1.002121997104743	-1.090860450930744	-8.313367678562699
1.73	3.830350803498868	91.23788313233396	-11.78385536040084	1.077576152447557	0.006637299061187014	0.4066049642022173	-1.265513210154772	-1.26159945284012	-10.43954456266284
1.735	3.382268701778472	113.4453594575108	-13.31082719412641	1.075105717278666	0.006637299061187014	0.4074786610739713	-1.557650412450835	-1.433382138327215	-12.79481457811996
1.74	2.631549417304742	137.9467795152745	-14.77186862378429	1.072370896363411	0.006637299061187014	0.4083301089372795	-1.87534827066244	-1.600171596039233	-15.36086822960148
1.745	1.502848569123121	164.5835870547703	-16.10005725933057	1.06939253878757	0.006637299061187014	0.4091541572069282	-2.213476598965768	-1.754860607568623	-18.11078987668065
1.75	-0.07858469466799178	193.1360161302428	-17.22136649823887	1.066190245169991	0.006637299061187014	0.4099462030845243	-2.564984545418229	-1.889440403289749	-21.00939425405771
1.755	-2.176318986799209	223.3349808656897	-18.05787842262539	1.06278227689454	0.006637299061187014	0.4107022454889434	-2.921398123775881	-1.995264814025003	-24.0145106656854
1.76	-4.832580448706056	254.878813456796	-18.53208085731908	1.059185495455319	0.006637299061187014	0.4114189230321115	-3.273622851318269	-2.06340883461688	-27.07893186806914
1.765	-8.060725191969105	287.4494440925675	-18.57183021737358	1.055415330474627	0.006637299061187014	0.412093535023955	-3.612701596075381	-2.085128124917314	-30.15245657346434
